<mxfile host="Electron" agent="Mozilla/5.0 (Macintosh; Intel Mac OS X 10_15_7) AppleWebKit/537.36 (KHTML, like Gecko) draw.io/28.1.2 Chrome/138.0.7204.243 Electron/37.4.0 Safari/537.36" version="28.1.2">
  <diagram name="Page-1" id="Eob7X1n_Voo4Cm6K8vWH">
    <mxGraphModel dx="1426" dy="859" grid="1" gridSize="10" guides="1" tooltips="1" connect="1" arrows="1" fold="1" page="1" pageScale="1" pageWidth="850" pageHeight="1100" math="0" shadow="0">
      <root>
        <mxCell id="0" />
        <mxCell id="1" parent="0" />
        <mxCell id="Wu_PeDN8fGzsEnfcn1-D-3" value="&lt;font style=&quot;font-size: 24px;&quot;&gt;类 HashMap&lt;/font&gt;" style="rounded=0;whiteSpace=wrap;html=1;" vertex="1" parent="1">
          <mxGeometry x="80" y="280" width="360" height="40" as="geometry" />
        </mxCell>
        <mxCell id="Wu_PeDN8fGzsEnfcn1-D-6" value="&lt;font style=&quot;font-size: 24px;&quot;&gt;接口 Map&lt;/font&gt;" style="rounded=0;whiteSpace=wrap;html=1;" vertex="1" parent="1">
          <mxGeometry x="80" y="40" width="360" height="40" as="geometry" />
        </mxCell>
        <mxCell id="Wu_PeDN8fGzsEnfcn1-D-7" value="&lt;font style=&quot;font-size: 18px;&quot;&gt;Object get(Object key)&lt;/font&gt;" style="rounded=0;whiteSpace=wrap;html=1;fontColor=#FF8000;" vertex="1" parent="1">
          <mxGeometry x="80" y="80" width="360" height="40" as="geometry" />
        </mxCell>
        <mxCell id="Wu_PeDN8fGzsEnfcn1-D-8" value="&lt;font style=&quot;font-size: 18px;&quot;&gt;void set(Object key, Object value)&lt;/font&gt;" style="rounded=0;whiteSpace=wrap;html=1;fontColor=#FF8000;" vertex="1" parent="1">
          <mxGeometry x="80" y="120" width="360" height="40" as="geometry" />
        </mxCell>
        <mxCell id="Wu_PeDN8fGzsEnfcn1-D-9" value="" style="endArrow=block;html=1;rounded=0;entryX=0.5;entryY=1;entryDx=0;entryDy=0;exitX=0.5;exitY=0;exitDx=0;exitDy=0;endFill=0;" edge="1" parent="1" source="Wu_PeDN8fGzsEnfcn1-D-3" target="Wu_PeDN8fGzsEnfcn1-D-8">
          <mxGeometry width="50" height="50" relative="1" as="geometry">
            <mxPoint x="280" y="470" as="sourcePoint" />
            <mxPoint x="330" y="420" as="targetPoint" />
          </mxGeometry>
        </mxCell>
        <mxCell id="Wu_PeDN8fGzsEnfcn1-D-39" value="&lt;font style=&quot;font-size: 18px;&quot;&gt;实现&lt;/font&gt;" style="edgeLabel;html=1;align=center;verticalAlign=middle;resizable=0;points=[];" vertex="1" connectable="0" parent="Wu_PeDN8fGzsEnfcn1-D-9">
          <mxGeometry x="0.0667" relative="1" as="geometry">
            <mxPoint as="offset" />
          </mxGeometry>
        </mxCell>
        <mxCell id="Wu_PeDN8fGzsEnfcn1-D-10" value="&lt;font style=&quot;font-size: 18px;&quot;&gt;12876&lt;/font&gt;" style="rounded=0;whiteSpace=wrap;html=1;" vertex="1" parent="1">
          <mxGeometry x="590" y="280" width="80" height="40" as="geometry" />
        </mxCell>
        <mxCell id="Wu_PeDN8fGzsEnfcn1-D-11" value="&lt;font style=&quot;font-size: 18px;&quot;&gt;7163&lt;/font&gt;" style="rounded=0;whiteSpace=wrap;html=1;" vertex="1" parent="1">
          <mxGeometry x="590" y="320" width="80" height="40" as="geometry" />
        </mxCell>
        <mxCell id="Wu_PeDN8fGzsEnfcn1-D-12" value="&lt;font style=&quot;font-size: 18px;&quot;&gt;48791&lt;/font&gt;" style="rounded=0;whiteSpace=wrap;html=1;" vertex="1" parent="1">
          <mxGeometry x="590" y="360" width="80" height="40" as="geometry" />
        </mxCell>
        <mxCell id="Wu_PeDN8fGzsEnfcn1-D-13" value="&lt;font style=&quot;font-size: 18px;&quot;&gt;78941&lt;/font&gt;" style="rounded=0;whiteSpace=wrap;html=1;" vertex="1" parent="1">
          <mxGeometry x="590" y="400" width="80" height="40" as="geometry" />
        </mxCell>
        <mxCell id="Wu_PeDN8fGzsEnfcn1-D-14" value="&lt;span style=&quot;font-size: 18px;&quot;&gt;8491&lt;/span&gt;" style="rounded=0;whiteSpace=wrap;html=1;" vertex="1" parent="1">
          <mxGeometry x="590" y="440" width="80" height="40" as="geometry" />
        </mxCell>
        <mxCell id="Wu_PeDN8fGzsEnfcn1-D-15" value="&lt;font style=&quot;font-size: 18px;&quot;&gt;63721&lt;/font&gt;" style="rounded=0;whiteSpace=wrap;html=1;" vertex="1" parent="1">
          <mxGeometry x="590" y="480" width="80" height="40" as="geometry" />
        </mxCell>
        <mxCell id="Wu_PeDN8fGzsEnfcn1-D-17" style="edgeStyle=orthogonalEdgeStyle;rounded=0;orthogonalLoop=1;jettySize=auto;html=1;entryX=0;entryY=0.5;entryDx=0;entryDy=0;curved=1;" edge="1" parent="1" source="Wu_PeDN8fGzsEnfcn1-D-16" target="Wu_PeDN8fGzsEnfcn1-D-14">
          <mxGeometry relative="1" as="geometry" />
        </mxCell>
        <mxCell id="Wu_PeDN8fGzsEnfcn1-D-22" value="&lt;font style=&quot;font-size: 16px;&quot;&gt;计算哈希值&lt;/font&gt;" style="edgeLabel;html=1;align=center;verticalAlign=middle;resizable=0;points=[];" vertex="1" connectable="0" parent="Wu_PeDN8fGzsEnfcn1-D-17">
          <mxGeometry x="-0.02" y="-2" relative="1" as="geometry">
            <mxPoint x="-8" y="32" as="offset" />
          </mxGeometry>
        </mxCell>
        <mxCell id="Wu_PeDN8fGzsEnfcn1-D-23" value="&lt;font style=&quot;font-size: 18px;&quot;&gt;get(&quot;hello&quot;)&lt;/font&gt;" style="edgeLabel;html=1;align=center;verticalAlign=middle;resizable=0;points=[];" vertex="1" connectable="0" parent="Wu_PeDN8fGzsEnfcn1-D-17">
          <mxGeometry x="-0.36" y="-4" relative="1" as="geometry">
            <mxPoint x="-6" y="26" as="offset" />
          </mxGeometry>
        </mxCell>
        <mxCell id="Wu_PeDN8fGzsEnfcn1-D-16" value="&lt;font style=&quot;font-size: 18px;&quot;&gt;Node&amp;lt;K, V&amp;gt;[] table&lt;/font&gt;" style="rounded=0;whiteSpace=wrap;html=1;fontColor=#3399FF;" vertex="1" parent="1">
          <mxGeometry x="80" y="320" width="360" height="40" as="geometry" />
        </mxCell>
        <mxCell id="Wu_PeDN8fGzsEnfcn1-D-18" value="&lt;font style=&quot;font-size: 18px;&quot;&gt;43891&lt;/font&gt;" style="rounded=0;whiteSpace=wrap;html=1;" vertex="1" parent="1">
          <mxGeometry x="590" y="520" width="80" height="40" as="geometry" />
        </mxCell>
        <mxCell id="Wu_PeDN8fGzsEnfcn1-D-19" value="哈希" style="text;html=1;align=center;verticalAlign=middle;whiteSpace=wrap;rounded=0;fontSize=18;" vertex="1" parent="1">
          <mxGeometry x="600" y="240" width="60" height="30" as="geometry" />
        </mxCell>
        <mxCell id="Wu_PeDN8fGzsEnfcn1-D-24" style="edgeStyle=orthogonalEdgeStyle;rounded=0;orthogonalLoop=1;jettySize=auto;html=1;" edge="1" parent="1" source="Wu_PeDN8fGzsEnfcn1-D-21" target="Wu_PeDN8fGzsEnfcn1-D-10">
          <mxGeometry relative="1" as="geometry" />
        </mxCell>
        <mxCell id="Wu_PeDN8fGzsEnfcn1-D-21" value="&lt;font style=&quot;font-size: 18px;&quot;&gt;...&lt;/font&gt;" style="rounded=0;whiteSpace=wrap;html=1;" vertex="1" parent="1">
          <mxGeometry x="710" y="280" width="80" height="40" as="geometry" />
        </mxCell>
        <mxCell id="Wu_PeDN8fGzsEnfcn1-D-36" style="edgeStyle=orthogonalEdgeStyle;rounded=0;orthogonalLoop=1;jettySize=auto;html=1;entryX=1;entryY=0.5;entryDx=0;entryDy=0;" edge="1" parent="1" source="Wu_PeDN8fGzsEnfcn1-D-25" target="Wu_PeDN8fGzsEnfcn1-D-11">
          <mxGeometry relative="1" as="geometry" />
        </mxCell>
        <mxCell id="Wu_PeDN8fGzsEnfcn1-D-25" value="&lt;font style=&quot;font-size: 18px;&quot;&gt;...&lt;/font&gt;" style="rounded=0;whiteSpace=wrap;html=1;" vertex="1" parent="1">
          <mxGeometry x="710" y="320" width="80" height="40" as="geometry" />
        </mxCell>
        <mxCell id="Wu_PeDN8fGzsEnfcn1-D-35" style="edgeStyle=orthogonalEdgeStyle;rounded=0;orthogonalLoop=1;jettySize=auto;html=1;" edge="1" parent="1" source="Wu_PeDN8fGzsEnfcn1-D-26" target="Wu_PeDN8fGzsEnfcn1-D-12">
          <mxGeometry relative="1" as="geometry" />
        </mxCell>
        <mxCell id="Wu_PeDN8fGzsEnfcn1-D-26" value="&lt;font style=&quot;font-size: 18px;&quot;&gt;...&lt;/font&gt;" style="rounded=0;whiteSpace=wrap;html=1;" vertex="1" parent="1">
          <mxGeometry x="710" y="360" width="80" height="40" as="geometry" />
        </mxCell>
        <mxCell id="Wu_PeDN8fGzsEnfcn1-D-34" style="edgeStyle=orthogonalEdgeStyle;rounded=0;orthogonalLoop=1;jettySize=auto;html=1;entryX=1;entryY=0.5;entryDx=0;entryDy=0;" edge="1" parent="1" source="Wu_PeDN8fGzsEnfcn1-D-27" target="Wu_PeDN8fGzsEnfcn1-D-13">
          <mxGeometry relative="1" as="geometry" />
        </mxCell>
        <mxCell id="Wu_PeDN8fGzsEnfcn1-D-27" value="&lt;font style=&quot;font-size: 18px;&quot;&gt;...&lt;/font&gt;" style="rounded=0;whiteSpace=wrap;html=1;" vertex="1" parent="1">
          <mxGeometry x="710" y="400" width="80" height="40" as="geometry" />
        </mxCell>
        <mxCell id="Wu_PeDN8fGzsEnfcn1-D-33" style="edgeStyle=orthogonalEdgeStyle;rounded=0;orthogonalLoop=1;jettySize=auto;html=1;" edge="1" parent="1" source="Wu_PeDN8fGzsEnfcn1-D-28" target="Wu_PeDN8fGzsEnfcn1-D-14">
          <mxGeometry relative="1" as="geometry" />
        </mxCell>
        <mxCell id="Wu_PeDN8fGzsEnfcn1-D-28" value="&lt;font style=&quot;font-size: 18px;&quot;&gt;你好&lt;/font&gt;" style="rounded=0;whiteSpace=wrap;html=1;fontColor=#FF0000;" vertex="1" parent="1">
          <mxGeometry x="710" y="440" width="80" height="40" as="geometry" />
        </mxCell>
        <mxCell id="Wu_PeDN8fGzsEnfcn1-D-32" style="edgeStyle=orthogonalEdgeStyle;rounded=0;orthogonalLoop=1;jettySize=auto;html=1;" edge="1" parent="1" source="Wu_PeDN8fGzsEnfcn1-D-29" target="Wu_PeDN8fGzsEnfcn1-D-15">
          <mxGeometry relative="1" as="geometry" />
        </mxCell>
        <mxCell id="Wu_PeDN8fGzsEnfcn1-D-29" value="&lt;font style=&quot;font-size: 18px;&quot;&gt;...&lt;/font&gt;" style="rounded=0;whiteSpace=wrap;html=1;" vertex="1" parent="1">
          <mxGeometry x="710" y="480" width="80" height="40" as="geometry" />
        </mxCell>
        <mxCell id="Wu_PeDN8fGzsEnfcn1-D-31" style="edgeStyle=orthogonalEdgeStyle;rounded=0;orthogonalLoop=1;jettySize=auto;html=1;" edge="1" parent="1" source="Wu_PeDN8fGzsEnfcn1-D-30" target="Wu_PeDN8fGzsEnfcn1-D-18">
          <mxGeometry relative="1" as="geometry" />
        </mxCell>
        <mxCell id="Wu_PeDN8fGzsEnfcn1-D-30" value="&lt;font style=&quot;font-size: 18px;&quot;&gt;...&lt;/font&gt;" style="rounded=0;whiteSpace=wrap;html=1;" vertex="1" parent="1">
          <mxGeometry x="710" y="520" width="80" height="40" as="geometry" />
        </mxCell>
        <mxCell id="Wu_PeDN8fGzsEnfcn1-D-37" value="&lt;font style=&quot;font-size: 18px;&quot;&gt;Object get(Object key)&lt;/font&gt;" style="rounded=0;whiteSpace=wrap;html=1;fontColor=#FF8000;" vertex="1" parent="1">
          <mxGeometry x="80" y="360" width="360" height="40" as="geometry" />
        </mxCell>
        <mxCell id="Wu_PeDN8fGzsEnfcn1-D-38" value="&lt;font style=&quot;font-size: 18px;&quot;&gt;void set(Object key, Object value)&lt;/font&gt;" style="rounded=0;whiteSpace=wrap;html=1;fontColor=#FF8000;" vertex="1" parent="1">
          <mxGeometry x="80" y="400" width="360" height="40" as="geometry" />
        </mxCell>
      </root>
    </mxGraphModel>
  </diagram>
</mxfile>
